<?xml version="1.0" encoding="utf-8"?>
<!-- Generator: Adobe Illustrator 21.1.0, SVG Export Plug-In . SVG Version: 6.00 Build 0)  -->
<svg version="1.1" id="Layer_1" xmlns="http://www.w3.org/2000/svg" xmlns:xlink="http://www.w3.org/1999/xlink" x="0px" y="0px"
	 viewBox="0 0 161 32" style="enable-background:new 0 0 161 32;" xml:space="preserve">
<style type="text/css">
	.st0{fill:#662D91;}
</style>
<g>
	<polygon class="st0" points="25.128,0.068 29.083,12.239 41.881,12.239 31.527,19.761 35.482,31.932 25.128,24.41 14.775,31.932 
		18.73,19.761 8.376,12.239 21.174,12.239 	"/>
	<polygon class="st0" points="67.783,0.068 71.737,12.239 84.535,12.239 74.181,19.761 78.136,31.932 67.783,24.41 57.429,31.932 
		61.384,19.761 51.03,12.239 63.828,12.239 	"/>
	<polygon class="st0" points="110.469,0.068 114.424,12.239 127.222,12.239 116.868,19.761 120.823,31.932 110.469,24.41 
		100.116,31.932 104.071,19.761 93.717,12.239 106.515,12.239 	"/>
	<polygon class="st0" points="152.624,0.068 152.624,24.41 142.27,31.932 146.225,19.761 135.871,12.239 148.669,12.239 	"/>
</g>
</svg>
