<?xml version="1.0" encoding="utf-8"?>
<!-- Generator: Adobe Illustrator 21.1.0, SVG Export Plug-In . SVG Version: 6.00 Build 0)  -->
<svg version="1.1" id="Layer_1" xmlns="http://www.w3.org/2000/svg" xmlns:xlink="http://www.w3.org/1999/xlink" x="0px" y="0px"
	 viewBox="0 0 161 32" style="enable-background:new 0 0 161 32;" xml:space="preserve">
<style type="text/css">
	.st0{fill:#662D91;}
</style>
<g>
	<polygon class="st0" points="37.829,0.068 41.784,12.239 54.582,12.239 44.228,19.761 48.183,31.932 37.829,24.41 27.476,31.932 
		31.431,19.761 21.077,12.239 33.875,12.239 	"/>
	<polygon class="st0" points="80.484,0.068 84.438,12.239 97.236,12.239 86.882,19.761 90.837,31.932 80.484,24.41 70.13,31.932 
		74.085,19.761 63.731,12.239 76.529,12.239 	"/>
	<polygon class="st0" points="123.171,0.068 127.125,12.239 139.923,12.239 129.569,19.761 133.524,31.932 123.171,24.41 
		112.817,31.932 116.772,19.761 106.418,12.239 119.216,12.239 	"/>
</g>
</svg>
