<?xml version="1.0" encoding="utf-8"?>
<!-- Generator: Adobe Illustrator 21.1.0, SVG Export Plug-In . SVG Version: 6.00 Build 0)  -->
<svg version="1.1" id="Layer_1" xmlns="http://www.w3.org/2000/svg" xmlns:xlink="http://www.w3.org/1999/xlink" x="0px" y="0px"
	 viewBox="0 0 161 32" style="enable-background:new 0 0 161 32;" xml:space="preserve">
<style type="text/css">
	.st0{fill:#662D91;}
</style>
<g>
	<polygon class="st0" points="16.752,0.068 20.707,12.239 33.505,12.239 23.151,19.761 27.106,31.932 16.752,24.41 6.399,31.932 
		10.354,19.761 0,12.239 12.798,12.239 	"/>
	<polygon class="st0" points="59.407,0.068 63.361,12.239 76.159,12.239 65.805,19.761 69.76,31.932 59.407,24.41 49.053,31.932 
		53.008,19.761 42.654,12.239 55.452,12.239 	"/>
	<polygon class="st0" points="102.093,0.068 106.048,12.239 118.846,12.239 108.492,19.761 112.447,31.932 102.093,24.41 
		91.74,31.932 95.695,19.761 85.341,12.239 98.139,12.239 	"/>
	<polygon class="st0" points="144.248,0.068 148.202,12.239 161,12.239 150.646,19.761 154.601,31.932 144.248,24.41 
		133.894,31.932 137.849,19.761 127.495,12.239 140.293,12.239 	"/>
</g>
</svg>
