<?xml version="1.0" encoding="utf-8"?>
<!-- Generator: Adobe Illustrator 21.1.0, SVG Export Plug-In . SVG Version: 6.00 Build 0)  -->
<svg version="1.1" id="Layer_1" xmlns="http://www.w3.org/2000/svg" xmlns:xlink="http://www.w3.org/1999/xlink" x="0px" y="0px"
	 viewBox="0 0 89 89" style="enable-background:new 0 0 89 89;" xml:space="preserve">
<style type="text/css">
	.st0{fill:#00A79D;stroke:#FFFFFF;stroke-width:4.7312;stroke-miterlimit:10;}
	.st1{fill:#FFFFFF;}
</style>
<g>
	<path class="st0" d="M74.607,86.607H14.393c-6.6,0-12-5.4-12-12V14.393c0-6.6,5.4-12,12-12h60.215c6.6,0,12,5.4,12,12v60.215
		C86.607,81.207,81.207,86.607,74.607,86.607z"/>
	<path class="st1" d="M74.046,15v11.44H63.81c0,0-2.81,0.602-2.81,2.81s0,10.637,0,10.637h13.046l-2.208,12.845H61.001v31.51H48.356
		v-31.51H37.519V39.887h10.838V26.44c0,0,2.609-10.236,12.644-11.44H74.046z"/>
</g>
</svg>
