<?xml version="1.0" encoding="utf-8"?>
<!-- Generator: Adobe Illustrator 21.1.0, SVG Export Plug-In . SVG Version: 6.00 Build 0)  -->
<svg version="1.1" id="Layer_1" xmlns="http://www.w3.org/2000/svg" xmlns:xlink="http://www.w3.org/1999/xlink" x="0px" y="0px"
	 viewBox="0 0 89 89" style="enable-background:new 0 0 89 89;" xml:space="preserve">
<style type="text/css">
	.st0{fill:#662D91;stroke:#FFFFFF;stroke-width:4.7312;stroke-miterlimit:10;}
	.st1{fill:#FFFFFF;}
</style>
<g>
	<path class="st0" d="M74.607,86.607H14.393c-6.6,0-12-5.4-12-12V14.393c0-6.6,5.4-12,12-12h60.215c6.6,0,12,5.4,12,12v60.215
		C86.607,81.207,81.207,86.607,74.607,86.607z"/>
	<path class="st0" d="M59.625,71.625h-30.25c-6.6,0-12-5.4-12-12v-30.25c0-6.6,5.4-12,12-12h30.25c6.6,0,12,5.4,12,12v30.25
		C71.625,66.225,66.225,71.625,59.625,71.625z"/>
	<circle class="st0" cx="44.5" cy="44.5" r="12.508"/>
	<circle class="st1" cx="59.633" cy="29.367" r="2.625"/>
</g>
</svg>
