<?xml version="1.0" encoding="utf-8"?>
<!-- Generator: Adobe Illustrator 21.1.0, SVG Export Plug-In . SVG Version: 6.00 Build 0)  -->
<svg version="1.1" id="Layer_1" xmlns="http://www.w3.org/2000/svg" xmlns:xlink="http://www.w3.org/1999/xlink" x="0px" y="0px"
	 viewBox="0 0 174 174" style="enable-background:new 0 0 174 174;" xml:space="preserve">
<style type="text/css">
	.st0{fill:#FFFFFF;stroke:#662D91;stroke-width:4.843;stroke-miterlimit:10;}
	.st1{fill:#231F20;}
	.st2{fill:#FFFFFF;}
</style>
<g>
	<circle class="st0" cx="87" cy="87" r="84.269"/>
	<path class="st1" d="M136.748,68.937l-0.008,0.008c-4.479-17.908-25.254-31.455-50.222-31.455
		c-28.237,0-51.128,17.322-51.128,38.691c0,21.368,22.891,38.691,51.128,38.691c1.554,0,3.089-0.061,4.607-0.164l-4.607,4.622
		c0,0-8.806,7.925,0,15.355C106.331,144.591,147.959,109.041,136.748,68.937z"/>
	<g>
		<ellipse class="st2" cx="113.257" cy="75.546" rx="9.572" ry="7.243"/>
		<ellipse class="st2" cx="87" cy="75.546" rx="9.572" ry="7.243"/>
		<ellipse class="st2" cx="60.743" cy="77.669" rx="9.572" ry="7.243"/>
		<ellipse class="st2" cx="73.543" cy="59.058" rx="9.572" ry="7.243"/>
		<ellipse class="st2" cx="100.088" cy="59.058" rx="9.572" ry="7.243"/>
		<ellipse class="st2" cx="101.089" cy="92.608" rx="9.572" ry="7.243"/>
		<ellipse class="st2" cx="74.97" cy="93.77" rx="9.572" ry="7.243"/>
	</g>
</g>
</svg>
