<?xml version="1.0" encoding="utf-8"?>
<!-- Generator: Adobe Illustrator 21.1.0, SVG Export Plug-In . SVG Version: 6.00 Build 0)  -->
<svg version="1.1" id="Layer_1" xmlns="http://www.w3.org/2000/svg" xmlns:xlink="http://www.w3.org/1999/xlink" x="0px" y="0px"
	 viewBox="0 0 89 89" style="enable-background:new 0 0 89 89;" xml:space="preserve">
<style type="text/css">
	.st0{fill:#00A79D;stroke:#FFFFFF;stroke-width:4.7312;stroke-miterlimit:10;}
	.st1{fill:#FFFFFF;}
</style>
<g>
	<path class="st0" d="M74.607,86.607H14.393c-6.6,0-12-5.4-12-12V14.393c0-6.6,5.4-12,12-12h60.215c6.6,0,12,5.4,12,12v60.215
		C86.607,81.207,81.207,86.607,74.607,86.607z"/>
	<path class="st1" d="M43.847,35.921c0,0-1.742-8.565,5.806-13.065s15.097,1.742,15.097,1.742s3.774-0.871,7.694-2.758
		c0,0-1.306,4.935-4.355,6.097c0,0,2.468,0.726,5.661-1.161c0,0-1.306,3.484-5.371,5.661c0,0,1.887,21.339-18.145,32.226
		S15.25,63.647,15.25,63.647s11.831,1.089,18-5.081c0,0-8.855-0.145-11.032-8.855l6.387,0.29c0,0-10.742-2.177-10.742-12.048
		c0,0,2.613,1.161,5.226,1.161c0,0-8.71-5.661-3.629-15.968C19.46,23.147,29.766,36.792,43.847,35.921z"/>
</g>
</svg>
